<svg width="32" height="32" viewBox="0 0 8.4666666 8.4666666"
  xmlns="http://www.w3.org/2000/svg">
  <path id="rect5" style="fill:#001935;stroke-width:0.793999;stroke-linecap:round;stroke-linejoin:round;paint-order:stroke fill markers" d="M 0.397003,0 H 8.06966 C 8.2896,0 8.46667,0.177063 8.46667,0.397003 V 8.06966 c 0,0.21994 -0.17707,0.39701 -0.39701,0.39701 H 0.397003 C 0.177063,8.46667 0,8.2896 0,8.06966 V 0.397003 C 0,0.177063 0.177063,0 0.397003,0 Z" />
  <path id="rect6" style="fill:none;stroke:#ffffff;stroke-width:0.529167;stroke-linecap:round;stroke-linejoin:round;paint-order:stroke fill markers" d="m 7.67292,7.32827 c 0,0.19093 -0.15372,0.34465 -0.34465,0.34465 H 1.1384 C 0.947462,7.67292 0.79375,7.5192 0.79375,7.32827 V 1.1384 c 0,-0.190938 0.153712,-0.34465 0.34465,-0.34465 h 6.18987 c 0.19093,0 0.34465,0.153712 0.34465,0.34465 z" />
  <path id="text1" style="font-weight:600;font-size:6.91266px;line-height:0px;font-family:'Bookman Old Style';-inkscape-font-specification:'Bookman Old Style Semi-Bold';fill:#ffffff;stroke:#001935;stroke-width:0.79375;stroke-linecap:round;stroke-linejoin:round;stroke-dasharray:none;paint-order:stroke fill markers" d="M 2.73246,1.59823 V 1.9489 C 2.95583,1.80147 3.1263,1.70669 3.24387,1.66457 3.3634,1.62034 3.49076,1.59822 3.62596,1.59822 c 0.3429,0 0.62212,0.13585 0.83766,0.40754 0.24689,0.31171 0.37033,0.70978 0.37033,1.19419 0,0.46335 -0.10777,0.85089 -0.3233,1.1626 C 4.26376,4.7227 3.93261,4.90277 3.51721,4.90277 3.38397,4.90277 3.26738,4.88593 3.16745,4.85223 3.06752,4.82064 2.95877,4.76166 2.84121,4.67531 v 0.63501 c 0,0.12636 0.00587,0.20219 0.01763,0.22746 0.01372,0.03159 0.03527,0.05371 0.06466,0.06635 0.03136,0.01474 0.10778,0.02211 0.22926,0.02211 H 3.2909 V 6.23597 H 1.46274 V 5.62624 h 0.09994 c 0.1352,0 0.21651,-0.00632 0.24395,-0.01896 C 1.83602,5.59675 1.85855,5.57253 1.87423,5.53462 1.89186,5.49882 1.90068,5.42405 1.90068,5.31032 V 2.47965 H 1.46274 V 1.86676 C 1.67436,1.83938 1.85463,1.80568 2.00355,1.76566 2.15246,1.72565 2.30334,1.66983 2.45618,1.59823 Z M 2.84121,2.5839 v 1.02991 c 0,0.16218 0.01371,0.27801 0.04114,0.34752 0.02939,0.06739 0.07838,0.12321 0.14696,0.16744 0.07054,0.04212 0.15087,0.06318 0.24101,0.06318 0.15871,0 0.28999,-0.07898 0.39384,-0.23694 C 3.76997,3.79704 3.82288,3.55694 3.82288,3.2347 3.82288,2.93563 3.77683,2.71448 3.68474,2.57126 3.5946,2.42594 3.48292,2.35328 3.34967,2.35328 3.19684,2.35328 3.02735,2.43015 2.8412,2.5839 Z M 6.41993,1.88883 c -0.14696,0 -0.27326,0.05711 -0.37907,0.17084 -0.10385,0.11163 -0.1562,0.24745 -0.1562,0.40752 0,0.16007 0.05235,0.29705 0.1562,0.41078 C 6.14667,2.9896 6.27297,3.04508 6.41993,3.04508 6.56884,3.04508 6.69515,2.98843 6.799,2.8747 6.90481,2.76097 6.95753,2.62515 6.95753,2.46719 6.95753,2.30712 6.90481,2.1713 6.799,2.05967 6.69515,1.94594 6.56884,1.88883 6.41993,1.88883 Z M 6.61669,3.29809 C 6.44426,3.38865 6.2699,3.45598 6.09355,3.50021 5.9172,3.54234 5.72793,3.56555 5.52611,3.56977 v 0.6003 h 0.43222 v 2.75784 c 0,0.14743 -0.01872,0.24935 -0.05595,0.30622 C 5.86515,7.291 5.81411,7.31955 5.74945,7.31955 5.70047,7.31955 5.64691,7.28264 5.58812,7.20892 5.49015,7.08677 5.4038,7.00388 5.32935,6.95965 5.25685,6.91542 5.18624,6.8929 5.11766,6.8929 5.00989,6.8929 4.91293,6.9333 4.82672,7.01333 4.7405,7.09547 4.69756,7.19438 4.69756,7.31022 c 0,0.10952 0.0353,0.21562 0.10584,0.31882 0.07054,0.1032 0.17598,0.18539 0.31706,0.24647 0.13912,0.06318 0.30883,0.09476 0.50869,0.09476 0.27432,0 0.51035,-0.05479 0.70825,-0.16431 C 6.5353,7.69854 6.67735,7.56087 6.76356,7.39237 6.84978,7.22599 6.89318,6.98244 6.89318,6.6623 V 3.29809 Z" />
</svg>
