<?xml version="1.0" encoding="UTF-8" standalone="no"?>
<!-- Created with Inkscape (http://www.inkscape.org/) -->

<svg
   width="256"
   height="256"
   viewBox="0 0 67.733335 67.733333"
   version="1.1"
   id="svg1"
   xml:space="preserve"
   inkscape:version="1.3.2 (091e20e, 2023-11-25, custom)"
   sodipodi:docname="Tailfeather.svg"
   inkscape:export-filename="Tailfeather.png"
   inkscape:export-xdpi="192"
   inkscape:export-ydpi="192"
   xmlns:inkscape="http://www.inkscape.org/namespaces/inkscape"
   xmlns:sodipodi="http://sodipodi.sourceforge.net/DTD/sodipodi-0.dtd"
   xmlns="http://www.w3.org/2000/svg"
   xmlns:svg="http://www.w3.org/2000/svg"><sodipodi:namedview
     id="namedview1"
     pagecolor="#505050"
     bordercolor="#ffffff"
     borderopacity="1"
     inkscape:showpageshadow="0"
     inkscape:pageopacity="0"
     inkscape:pagecheckerboard="1"
     inkscape:deskcolor="#505050"
     inkscape:document-units="px"
     inkscape:zoom="1.4142136"
     inkscape:cx="199.75766"
     inkscape:cy="276.8323"
     inkscape:window-width="2560"
     inkscape:window-height="1377"
     inkscape:window-x="1912"
     inkscape:window-y="-8"
     inkscape:window-maximized="1"
     inkscape:current-layer="svg1" /><defs
     id="defs1" /><g
     inkscape:groupmode="layer"
     id="layer2"
     inkscape:label="Layer 2"><path
       id="rect1"
       style="display:inline;fill:#090e1a;stroke-width:1.323;stroke-linecap:round;stroke-linejoin:round;paint-order:stroke fill markers"
       d="m 10.1427,0 h 47.4479 c 5.6191,0 10.1427,4.52365 10.1427,10.1427 v 47.4479 c 0,5.6191 -4.5236,10.1427 -10.1427,10.1427 H 10.1427 C 4.52365,67.7333 0,63.2097 0,57.5906 V 10.1427 C 0,4.52365 4.52365,0 10.1427,0 Z" /></g><g
     inkscape:groupmode="layer"
     id="layer4"
     inkscape:label="Layer 4"
     style="display:inline;stroke:#4d557a;stroke-width:2.64583;stroke-dasharray:none;stroke-opacity:1"
     transform="translate(0.94305674,-0.31435225)"><path
       d="M 21.5016,1.59539e-4 C 21.5016,1.59539e-4 -0.759597,16.1175 3.57088,26.8058 9.70646,15.811 22.8805,2.76724 23.1361,2.51473 Z"
       style="display:inline;fill:#1c2240;stroke-linecap:square;paint-order:stroke fill markers"
       id="path24" /><path
       d="M 23.1356,2.51577 C 22.8769,2.77134 9.70571,15.8123 3.57088,26.8058 c -2.56997,4.6053 -3.903088,8.8431 -2.50217,11.608 0.60645,1.197 1.2773,1.8935 1.98541,2.2046 C 3.54416,36.8288 5.19878,32.5699 7.35928,28.37 11.251,20.8046 16.7378,13.4635 19.8727,9.51999 21.8184,5.54593 23.1348,2.51759 23.1356,2.51577 Z"
       style="display:inline;fill:#1c2240;stroke-linecap:square;paint-order:stroke fill markers"
       id="path23" /><path
       d="m 23.1991,2.45169 c 0,0 -0.0605,0.06058 -0.063,0.06304 l -5e-4,0.00103 C 23.1348,2.51758 21.8184,5.54593 19.8727,9.51999 16.7378,13.4635 11.251,20.8046 7.35928,28.37 5.1988,32.5699 3.54417,36.8288 3.05412,40.6183 c -0.4614,3.5681 0.10069,6.7202 2.28978,8.9866 1.46302,1.5146 3.05135,1.9726 4.6741,1.6216 C 8.37995,37.9663 22.0809,14.4952 24.7474,10.0734 24.178,8.61978 23.3804,7.41313 22.3191,6.53878 c 0,0 -0.446,0.52522 -1.0253,1.22628 z"
       style="display:inline;fill:#1c2240;stroke-linecap:square;paint-order:stroke fill markers"
       id="path22" /><path
       d="m 26.2305,8.85182 c -0.2639,0.00404 -0.5407,0.04897 -0.831,0.13849 0,0 -0.3714,0.61753 -0.6521,1.08309 -2.6665,4.4218 -16.36746,27.8929 -14.7294,41.1531 0.335,2.7114 1.32,4.9811 3.1848,6.5515 2.1295,1.7933 4.084,2.0181 5.8602,1.1865 -1.6842,-3.8265 -1.5332,-9.7416 -0.5173,-16.1034 1.562,-9.7822 5.163,-20.6 7.305,-26.5116 1.0015,-2.7641 1.6867,-4.4669 1.6867,-4.4669 l 1.942,-0.1033 C 28.705,10.0005 27.6554,8.83002 26.2305,8.85182 Z"
       style="display:inline;fill:#1c2240;stroke-linecap:square;paint-order:stroke fill markers"
       id="path21" /><path
       d="m 29.4794,11.7793 -1.942,0.1033 c 0,0 -0.6852,1.7028 -1.6867,4.4669 -2.142,5.9117 -5.743,16.7294 -7.305,26.5116 -1.0159,6.3618 -1.1669,12.2769 0.5173,16.1034 0.8687,1.9738 2.222,3.3957 4.1992,4.0318 2.1499,0.6917 3.9094,0.0315 5.3516,-1.5803 -1.0442,-3.7062 -1.48,-9.0268 -1.5834,-14.7944 -0.2785,-15.5471 1.9529,-34.4248 1.9529,-34.4248 h 0.6661 c -0.0556,-0.1416 -0.1113,-0.2827 -0.17,-0.4175 z"
       style="display:inline;fill:#1c2240;stroke-linecap:square;paint-order:stroke fill markers"
       id="path20" /><path
       d="M 62.2583,26.8611 C 66.5888,16.1728 44.3276,0.0554533 44.3276,0.0554533 L 42.6925,2.57003 C 42.9471,2.82152 56.1224,15.8658 62.2583,26.8611 Z"
       style="display:inline;fill:#1c2240;stroke-linecap:square;paint-order:stroke fill markers"
       id="path28" /><path
       d="m 42.63,2.50698 1.9053,5.31286 c 0.4013,0.48566 0.8127,0.99009 1.4211,1.75545 3.135,3.94351 8.6217,11.28461 12.5135,18.85001 2.1605,4.1999 3.8151,8.4587 4.3051,12.2483 0.7081,-0.3111 1.379,-1.0075 1.9854,-2.2045 1.4009,-2.7649 0.0678,-7.0028 -2.5021,-11.608 C 56.1224,15.8659 42.9471,2.82152 42.6925,2.57003 42.69,2.56758 42.63,2.50698 42.63,2.50698 Z"
       style="display:inline;fill:#1c2240;stroke-linecap:square;paint-order:stroke fill markers"
       id="path27" /><path
       d="m 43.51,6.59356 c -1.0612,0.87435 -1.8588,2.08151 -2.4282,3.53514 2.667,4.4226 16.3674,27.8932 14.7293,41.1531 1.6228,0.351 3.2111,-0.107 4.6741,-1.6216 2.1891,-2.2664 2.7512,-5.4185 2.2898,-8.9866 C 62.285,36.884 60.6304,32.6252 58.4699,28.4253 54.5781,20.8598 49.0914,13.5188 45.9564,9.57529 45.348,8.80993 44.9366,8.3055 44.5353,7.81984 43.9563,7.11907 43.51,6.59356 43.51,6.59356 Z"
       style="display:inline;fill:#1c2240;stroke-linecap:square;paint-order:stroke fill markers"
       id="path26" /><path
       d="m 39.5987,8.90711 c -1.425,-0.0218 -2.4745,1.14869 -3.2489,2.92749 l 1.942,0.1033 c 0,0 0.6849,1.7035 1.6867,4.4685 2.1421,5.912 5.7431,16.729 7.305,26.5105 1.0157,6.3616 1.1668,12.2765 -0.5173,16.1029 1.7761,0.8316 3.7306,0.6068 5.8601,-1.1865 1.8649,-1.5704 2.8498,-3.8401 3.1848,-6.5515 C 57.4492,38.0219 43.7488,14.5513 41.0818,10.1287 40.8009,9.66293 40.4296,9.0456 40.4296,9.0456 40.1394,8.95608 39.8625,8.91115 39.5987,8.90711 Z"
       style="display:inline;fill:#1c2240;stroke-linecap:square;paint-order:stroke fill markers"
       id="path25" /><path
       d="m 36.3498,11.8346 c -0.0512,0.1175 -0.1001,0.2396 -0.1489,0.3622 h 0.5783 c 0,0 2.6089,19.583 2.3063,35.2785 -0.1076,5.581 -0.5801,10.6745 -1.6733,14.2157 1.4045,1.4544 3.1026,2.0209 5.1547,1.3606 1.9772,-0.6361 3.3306,-2.058 4.1993,-4.0318 1.6841,-3.8264 1.533,-9.7413 0.5173,-16.1029 -1.5619,-9.7815 -5.1629,-20.5985 -7.305,-26.5105 -1.0018,-2.765 -1.6867,-4.4685 -1.6867,-4.4685 z"
       style="display:inline;fill:#1c2240;stroke-linecap:square;paint-order:stroke fill markers"
       id="path19" /><path
       d="m 28.9833,12.1968 c 0,0 -2.2314,18.8779 -1.9529,34.4248 0.1034,5.7675 0.5392,11.0882 1.5834,14.7945 0.9212,3.2698 2.2985,5.3087 4.3098,5.3087 2.0868,0 3.5267,-1.9179 4.4886,-5.0338 1.0932,-3.5412 1.5657,-8.6347 1.6733,-14.2157 0.3026,-15.6954 -2.3063,-35.2785 -2.3063,-35.2785 h -0.5783 -1.5291 -3.5119 -1.5105 z"
       style="display:inline;fill:#1c2240;stroke-linecap:square;paint-order:stroke fill markers"
       id="path18" /><path
       style="fill:#ffffff;fill-opacity:1;stroke:#4d557a;stroke-width:2.64583;stroke-linecap:square;stroke-linejoin:miter;stroke-dasharray:none;stroke-opacity:1;paint-order:stroke fill markers"
       d="m 44.357743,-1.2860677 c 0.0731,1.35710795 1.3872,12.2365197 -3.0852,15.1595197 -4.7372,3.096 -8.3489,7.0241 -8.3489,7.0241 0,0 -3.2587,-3.6232 -8.3489,-7.0241 -5.2778,-3.5262 -3.2453,-15.5596297 -3.2453,-15.5596297 z"
       id="path13"
       sodipodi:nodetypes="cscscc" /><path
       style="fill:#4d557a;fill-opacity:1;stroke:none;stroke-width:3.175;stroke-linecap:square;stroke-linejoin:miter;stroke-dasharray:none;stroke-opacity:1;paint-order:stroke fill markers"
       d="m 32.9236,6.66435 -2.1167,-8.99583 h 4.2334 z"
       id="path14"
       sodipodi:nodetypes="cccc" /></g><g
     inkscape:groupmode="layer"
     id="layer3"
     inkscape:label="Layer 3"
     style="display:inline"><path
       d="m 5.0270843,30.414689 v -8.18884 H 34.154749 v 8.18884 H 24.384093 V 56.888635 H 14.79776 V 30.414689 Z M 36.920005,56.888635 V 22.225849 h 25.786227 v 8.18884 H 46.506337 v 6.141555 h 15.278177 v 7.8631 H 46.506337 v 12.469291 z"
       id="text1"
       style="font-weight:900;font-size:47.4185px;line-height:0px;font-family:Inter;-inkscape-font-specification:'Inter Heavy';fill:#090e1a;stroke:#ffffff;stroke-width:3.175;stroke-linecap:square;paint-order:stroke fill markers"
       aria-label="TF" /></g><g
     inkscape:groupmode="layer"
     id="layer5"
     inkscape:label="Layer 5"
     style="display:none"><path
       style="display:inline;fill:#ffffff;fill-opacity:1;stroke:none;stroke-width:3.175;stroke-linecap:square;stroke-linejoin:miter;stroke-dasharray:none;stroke-opacity:1;paint-order:stroke fill markers"
       d="m 36.93639,22.224704 h 25.770991 v 1.05863 z"
       id="path15"
       sodipodi:nodetypes="cccc" /><path
       style="display:inline;fill:#ffffff;fill-opacity:1;stroke:none;stroke-width:3.175;stroke-linecap:square;stroke-linejoin:miter;stroke-dasharray:none;stroke-opacity:1;paint-order:stroke fill markers"
       d="M 5.0296362,22.224704 H 34.156056 v 1.05863 z"
       id="path16"
       sodipodi:nodetypes="cccc" /><path
       style="display:inline;fill:#1c2240;fill-opacity:1;stroke:none;stroke-width:3.175;stroke-linecap:square;stroke-linejoin:miter;stroke-dasharray:none;stroke-opacity:1;paint-order:stroke fill markers"
       d="m 36.922243,22.224088 v 0.530079 l 25.784009,2.116667 v -1.5875 z"
       id="path17"
       sodipodi:nodetypes="ccccc" /><path
       style="display:inline;fill:#1c2240;fill-opacity:1;stroke:none;stroke-width:3.175;stroke-linecap:square;stroke-linejoin:miter;stroke-dasharray:none;stroke-opacity:1;paint-order:stroke fill markers"
       d="m 5.0274283,22.224228 v 0.530079 l 29.1286637,2.116667 v -1.5875 z"
       id="path17-3"
       sodipodi:nodetypes="ccccc" /></g></svg>
